<svg width="28" height="22" viewBox="0 0 28 22" fill="none" xmlns="http://www.w3.org/2000/svg">
<path d="M27.0882 17.1796C27.2208 16.9375 27.1321 16.6336 26.8899 16.5009L22.9434 14.3387C22.7012 14.206 22.3973 14.2948 22.2647 14.537C22.132 14.7791 22.2207 15.083 22.4629 15.2157L25.9709 17.1377L24.049 20.6457C23.9163 20.8878 24.0051 21.1917 24.2472 21.3244C24.4894 21.4571 24.7933 21.3683 24.926 21.1261L27.0882 17.1796ZM0.52726 0.697419C2.32362 4.21889 5.77493 9.27455 10.3126 13.0157C14.8503 16.7569 20.5523 19.2413 26.7899 17.4193L26.5095 16.4594C20.7186 18.1509 15.3558 15.8776 10.9488 12.2442C6.54189 8.61083 3.16887 3.6752 1.41805 0.24301L0.52726 0.697419Z" fill="#4E267E"/>
</svg>
