<svg width="104" height="45" viewBox="0 0 104 45" fill="none" xmlns="http://www.w3.org/2000/svg">
<path d="M103.633 38.7422C103.874 38.4055 103.797 37.9369 103.46 37.6957L97.9723 33.7651C97.6356 33.5239 97.1671 33.6014 96.9259 33.9381C96.6847 34.2748 96.7621 34.7434 97.0989 34.9846L101.977 38.4784L98.4828 43.3562C98.2416 43.693 98.319 44.1615 98.6558 44.4027C98.9925 44.6439 99.461 44.5664 99.7022 44.2297L103.633 38.7422ZM0.838416 1.91767C14.966 17.5912 55.184 46.9738 103.145 39.0454L102.901 37.5655C55.6475 45.3768 15.904 16.3914 1.9526 0.913383L0.838416 1.91767Z" fill="#4E267E"/>
</svg>
