<svg width="127" height="55" viewBox="0 0 127 55" fill="none" xmlns="http://www.w3.org/2000/svg">
<path d="M126.813 46.9562C127.135 46.5072 127.031 45.8825 126.582 45.5609L119.266 40.3201C118.817 39.9985 118.192 40.1018 117.87 40.5508C117.549 40.9998 117.652 41.6244 118.101 41.946L124.605 46.6046L119.946 53.1083C119.625 53.5573 119.728 54.1819 120.177 54.5036C120.626 54.8252 121.251 54.7219 121.572 54.2729L126.813 46.9562ZM0.257211 1.66953C17.643 20.9577 67.1348 57.1183 126.163 47.3605L125.837 45.3873C67.7529 54.989 18.8936 19.358 1.74279 0.330475L0.257211 1.66953Z" fill="#4E267E"/>
</svg>
