<svg width="275" height="143" viewBox="0 0 275 143" fill="none" xmlns="http://www.w3.org/2000/svg">
<path d="M0.0917838 137.081C-0.139348 137.583 0.0799047 138.177 0.581499 138.408L8.75544 142.175C9.25704 142.406 9.85103 142.187 10.0822 141.685C10.3133 141.183 10.094 140.589 9.59245 140.358L2.32672 137.01L5.67473 129.745C5.90586 129.243 5.68661 128.649 5.18501 128.418C4.68342 128.187 4.08943 128.406 3.8583 128.908L0.0917838 137.081ZM0.309049 1.7229C30.5212 30.5998 79.8318 69.8737 129.591 93.826C154.469 105.801 179.526 113.98 202.402 115.071C225.306 116.163 246.069 110.149 262.214 93.7005L260.786 92.2995C245.131 108.251 224.973 114.145 202.498 113.073C179.995 112 155.214 103.94 130.459 92.024C80.9515 68.193 31.8121 29.0669 1.69095 0.277098L0.309049 1.7229ZM262.214 93.7005C266.217 89.622 269.173 86.0317 271.147 82.894C273.113 79.7697 274.158 77.0114 274.215 74.6155C274.274 72.1533 273.285 70.1601 271.409 68.6751C269.582 67.2285 266.954 66.293 263.733 65.7469C257.284 64.6535 248.031 65.055 236.774 66.5823C225.493 68.1128 212.113 70.7865 197.369 74.2896C138.401 88.2996 57.3311 115.641 0.653719 136.562L1.34628 138.438C58.0023 117.525 138.982 90.2171 197.831 76.2354C212.541 72.7406 225.851 70.0825 237.043 68.5642C248.258 67.0426 257.261 66.6782 263.398 67.7187C266.47 68.2395 268.719 69.0959 270.168 70.2432C271.569 71.3521 272.259 72.7549 272.216 74.5677C272.171 76.4468 271.333 78.8428 269.454 81.8289C267.584 84.8016 264.733 88.278 260.786 92.2995L262.214 93.7005Z" fill="#4E267E"/>
</svg>
