<svg width="147" height="46" viewBox="0 0 147 46" fill="none" xmlns="http://www.w3.org/2000/svg">
<path d="M1.96172 44.9792C2.02423 45.3887 2.40685 45.6699 2.81632 45.6074L9.489 44.5887C9.89847 44.5262 10.1797 44.1436 10.1172 43.7341C10.0547 43.3246 9.67208 43.0434 9.26262 43.1059L3.33134 44.0114L2.4258 38.0801C2.36329 37.6707 1.98067 37.3894 1.5712 37.4519C1.16173 37.5144 0.880471 37.8971 0.942986 38.3065L1.96172 44.9792ZM146.875 0.920759C129.189 -0.581932 100.759 -0.218009 72.8895 5.75561C45.0447 11.724 17.6068 23.3254 2.09883 44.4218L3.30742 45.3102C18.4873 24.6601 45.4788 13.165 73.2039 7.2223C100.904 1.28481 129.184 0.923007 146.748 2.41537L146.875 0.920759Z" fill="#4E267E"/>
</svg>
