<svg width="196" height="60" viewBox="0 0 196 60" fill="none" xmlns="http://www.w3.org/2000/svg">
<path d="M194.485 60.0061C195.038 60.0142 195.492 59.5731 195.5 59.0209L195.632 50.0219C195.64 49.4697 195.199 49.0154 194.647 49.0073C194.095 48.9992 193.641 49.4403 193.632 49.9925L193.515 57.9916L185.516 57.874C184.963 57.8659 184.509 58.3069 184.501 58.8592C184.493 59.4114 184.934 59.8656 185.486 59.8738L194.485 60.0061ZM1.09444 3.00174C22.0839 1.01064 56.9555 1.45702 93.2517 9.28374C129.557 17.1125 167.175 32.3007 193.783 59.7028L195.217 58.3096C168.225 30.5117 130.176 15.1999 93.6733 7.32867C57.1612 -0.544606 22.0828 -0.998231 0.905562 1.01067L1.09444 3.00174Z" fill="#4E267E"/>
</svg>
