<svg width="139" height="38" viewBox="0 0 139 38" fill="none" xmlns="http://www.w3.org/2000/svg">
<path d="M135.534 37.6308C135.926 37.7652 136.353 37.5564 136.487 37.1646L138.676 30.7795C138.811 30.3877 138.602 29.9611 138.21 29.8268C137.818 29.6924 137.392 29.9012 137.257 30.293L135.311 35.9687L129.636 34.0227C129.244 33.8884 128.817 34.0971 128.683 34.489C128.549 34.8808 128.757 35.3073 129.149 35.4417L135.534 37.6308ZM1.10185 4.14282C19.5397 1.61552 48.3893 0.255566 74.9868 4.38281C88.2848 6.44632 100.986 9.87649 111.533 15.1951C122.078 20.5127 130.428 27.6962 135.104 37.251L136.451 36.5917C131.589 26.6556 122.945 19.2699 112.208 13.8557C101.474 8.44251 88.6065 4.97829 75.2168 2.90055C48.4389 -1.25469 19.4377 0.115468 0.898149 2.65672L1.10185 4.14282Z" fill="#4E267E"/>
</svg>
