<svg width="124" height="60" viewBox="0 0 124 60" fill="none" xmlns="http://www.w3.org/2000/svg">
<path d="M122.148 58.3901C122.058 58.935 121.543 59.3037 120.998 59.2136L112.118 57.7458C111.574 57.6557 111.205 57.141 111.295 56.5961C111.385 56.0512 111.9 55.6825 112.445 55.7725L120.338 57.0773L121.642 49.1844C121.732 48.6395 122.247 48.2708 122.792 48.3609C123.337 48.451 123.706 48.9657 123.615 49.5106L122.148 58.3901ZM0.636671 0.924194C26.5691 -0.421045 87.1345 9.0056 121.974 57.6447L120.348 58.8093C86.0659 10.9482 26.3222 1.59445 0.740282 2.92151L0.636671 0.924194Z" fill="#4E267E"/>
</svg>
