<svg width="100" height="49" viewBox="0 0 100 49" fill="none" xmlns="http://www.w3.org/2000/svg">
<path d="M98.7247 47.6869C98.6572 48.0955 98.2711 48.372 97.8625 48.3045L91.2028 47.2036C90.7942 47.136 90.5176 46.75 90.5852 46.3413C90.6527 45.9327 91.0388 45.6561 91.4475 45.7237L97.3671 46.7023L98.3457 40.7826C98.4133 40.3739 98.7993 40.0974 99.208 40.165C99.6166 40.2325 99.8932 40.6186 99.8256 41.0272L98.7247 47.6869ZM-0.000767977 1.03909C21.0718 -0.0540422 70.2868 7.60772 98.5945 47.1278L97.375 48.0013C69.4854 9.06471 20.8866 1.45758 0.0769399 2.53708L-0.000767977 1.03909Z" fill="#4E267E"/>
</svg>
