<svg width="24" height="32" viewBox="0 0 24 32" fill="none" xmlns="http://www.w3.org/2000/svg">
<path d="M19.4605 30.837C19.635 31.0511 19.9499 31.0831 20.1639 30.9086L23.6514 28.0648C23.8655 27.8902 23.8975 27.5753 23.723 27.3613C23.5485 27.1473 23.2335 27.1152 23.0195 27.2898L19.9195 29.8176L17.3916 26.7176C17.2171 26.5036 16.9022 26.4715 16.6882 26.646C16.4742 26.8206 16.4421 27.1355 16.6166 27.3495L19.4605 30.837ZM0.0706346 1.81687C7.88154 3.33594 13.1946 4.90053 16.3283 8.80089C19.4573 12.6953 20.5114 19.0522 19.3505 30.4705L20.3454 30.5716C21.5084 19.1325 20.5077 12.4061 17.1079 8.17456C13.7128 3.9489 8.02292 2.3447 0.261538 0.835265L0.0706346 1.81687Z" fill="#4E267E"/>
</svg>
