<svg width="212" height="66" viewBox="0 0 212 66" fill="none" xmlns="http://www.w3.org/2000/svg">
<path d="M2.01145 65.151C2.09481 65.697 2.60496 66.072 3.15092 65.9886L12.0478 64.6303C12.5938 64.547 12.9688 64.0368 12.8855 63.4908C12.8021 62.9449 12.2919 62.5699 11.746 62.6532L3.83762 63.8606L2.63024 55.9522C2.54689 55.4063 2.03673 55.0313 1.49077 55.1146C0.944812 55.198 0.569795 55.7081 0.653148 56.2541L2.01145 65.151ZM211.585 1.50366C186.004 -0.669886 144.878 -0.143473 104.565 8.49728C64.2856 17.1311 24.613 33.9102 2.19427 64.4078L3.80573 65.5924C25.787 35.6899 64.8644 19.0524 104.985 10.4529C145.072 1.86028 185.996 1.3367 211.415 3.49648L211.585 1.50366Z" fill="#4E267E"/>
</svg>
