<svg width="29" height="21" viewBox="0 0 29 21" fill="none" xmlns="http://www.w3.org/2000/svg">
<path d="M26.314 20.1501C26.5669 20.2609 26.8618 20.1457 26.9726 19.8927L28.7784 15.771C28.8892 15.518 28.774 15.2232 28.521 15.1123C28.2681 15.0015 27.9732 15.1167 27.8624 15.3697L26.2573 19.0335L22.5935 17.4283C22.3405 17.3175 22.0456 17.4327 21.9348 17.6857C21.824 17.9386 21.9392 18.2335 22.1922 18.3443L26.314 20.1501ZM0.217446 1.74535C6.4669 1.76075 20.3995 5.41487 26.0489 19.8741L26.9803 19.5101C21.1273 4.52988 6.70838 0.761346 0.21991 0.745354L0.217446 1.74535Z" fill="#4E267E"/>
</svg>
