<svg width="136" height="42" viewBox="0 0 136 42" fill="none" xmlns="http://www.w3.org/2000/svg">
<path d="M134.355 41.7247C134.769 41.7308 135.11 41.4 135.116 40.9858L135.215 34.2366C135.221 33.8224 134.89 33.4817 134.476 33.4756C134.062 33.4695 133.721 33.8003 133.715 34.2145L133.627 40.2139L127.628 40.1256C127.213 40.1195 126.873 40.4504 126.867 40.8645C126.861 41.2787 127.191 41.6194 127.606 41.6255L134.355 41.7247ZM0.695828 2.32492C15.1975 0.94926 39.2936 1.25757 64.374 6.66577C89.4615 12.0755 115.449 22.5694 133.828 41.4973L134.904 40.4523C116.237 21.2277 89.9253 10.6411 64.6901 5.19947C39.4478 -0.243649 15.1967 -0.557393 0.554172 0.83162L0.695828 2.32492Z" fill="#4E267E"/>
</svg>
