<svg width="52" height="59" viewBox="0 0 52 59" fill="none" xmlns="http://www.w3.org/2000/svg">
<path d="M4.40015 58.4502C4.64879 58.7815 5.11891 58.8485 5.4502 58.5998L10.8488 54.548C11.1801 54.2994 11.2471 53.8293 10.9985 53.498C10.7499 53.1667 10.2797 53.0997 9.94845 53.3484L5.14965 56.95L1.54805 52.1512C1.29941 51.8199 0.829287 51.7529 0.497999 52.0015C0.166711 52.2501 0.0997105 52.7203 0.348349 53.0516L4.40015 58.4502ZM5.7425 58.1058C7.08569 48.681 11.0332 34.5393 18.486 22.7764C25.9361 11.0179 36.8062 1.75 52 1.75V0.25C36.0925 0.25 24.8166 9.98207 17.2189 21.9736C9.62401 33.9607 5.62213 48.319 4.2575 57.8942L5.7425 58.1058Z" fill="#4E267E"/>
</svg>
