<svg width="21" height="46" viewBox="0 0 21 46" fill="none" xmlns="http://www.w3.org/2000/svg">
<path d="M3.63132 45.3377C3.81785 45.5414 4.13413 45.5552 4.33775 45.3687L7.65589 42.329C7.85951 42.1424 7.87336 41.8261 7.68682 41.6225C7.50029 41.4189 7.18401 41.4051 6.98039 41.5916L4.03094 44.2936L1.32896 41.3441C1.14242 41.1405 0.826145 41.1266 0.622527 41.3132C0.418909 41.4997 0.405059 41.816 0.591592 42.0196L3.63132 45.3377ZM19.9491 0.502597C17.9979 0.702243 16.0768 1.82839 14.2883 3.79082C12.499 5.75425 10.8135 8.58442 9.32581 12.2705C6.35001 19.6438 4.13353 30.5218 3.50048 44.9781L4.49952 45.0219C5.12962 30.6329 7.3342 19.8771 10.2531 12.6448C11.7128 9.02813 13.3431 6.31257 15.0274 4.4644C16.7127 2.61524 18.4232 1.66395 20.0509 1.4974L19.9491 0.502597Z" fill="#4E267E"/>
</svg>
