<svg width="200" height="54" viewBox="0 0 200 54" fill="none" xmlns="http://www.w3.org/2000/svg">
<path d="M195.676 53.9453C196.198 54.1245 196.767 53.8462 196.946 53.3237L199.865 44.8102C200.044 44.2878 199.766 43.7191 199.243 43.5399C198.721 43.3608 198.152 43.6391 197.973 44.1616L195.378 51.7291L187.811 49.1345C187.288 48.9554 186.72 49.2337 186.541 49.7562C186.361 50.2786 186.64 50.8473 187.162 51.0264L195.676 53.9453ZM1.1358 5.49014C27.818 1.83277 69.5669 -0.135427 108.059 5.83757C127.304 8.82392 145.69 13.7887 160.961 21.4892C176.228 29.1884 188.326 39.5931 195.102 53.439L196.898 52.5598C189.874 38.2057 177.384 27.5313 161.861 19.7034C146.341 11.8768 127.733 6.86655 108.366 3.86123C69.6331 -2.1491 27.682 -0.167298 0.864198 3.50867L1.1358 5.49014Z" fill="#4E267E"/>
</svg>
