<svg width="89" height="72" viewBox="0 0 89 72" fill="none" xmlns="http://www.w3.org/2000/svg">
<path d="M87.7583 67.3823C88.0897 67.1338 88.1569 66.6637 87.9085 66.3323L83.8594 60.9316C83.6109 60.6002 83.1408 60.533 82.8094 60.7814C82.478 61.0299 82.4108 61.5 82.6592 61.8314L86.2584 66.632L81.4578 70.2312C81.1264 70.4797 81.0591 70.9498 81.3076 71.2812C81.5561 71.6126 82.0262 71.6798 82.3576 71.4314L87.7583 67.3823ZM0.825363 1.31107C9.57709 20.5114 39.0796 60.6416 87.2022 67.5246L87.4146 66.0398C40.0025 59.2583 10.8328 19.6498 2.19026 0.688933L0.825363 1.31107Z" fill="#4E267E"/>
</svg>
