<svg xmlns="http://www.w3.org/2000/svg" xmlns:xlink="http://www.w3.org/1999/xlink" xmlns:svgjs="http://svgjs.dev/svgjs" width="1000" height="1000"><style/><svg xmlns="http://www.w3.org/2000/svg" xmlns:xlink="http://www.w3.org/1999/xlink" xmlns:svgjs="http://svgjs.dev/svgjs" width="1000" height="1000"><svg xmlns="http://www.w3.org/2000/svg" xmlns:xlink="http://www.w3.org/1999/xlink" xmlns:svgjs="http://svgjs.dev/svgjs" width="86" height="98" transform="translate(61.224) scale(10.20408)"><svg width="86" height="98" fill="none" xmlns="http://www.w3.org/2000/svg"><path d="M69.598 29.31c3.345 5.502 5.484 11.293 5.445 17.634-.04 6.342-.772 12.56-4.186 18.025-3.414 5.464-5.196 6.965-11.06 10.073m-45.73 0C10.94 72.957 8.81 69.874 5.77 64.84c-.276-.457-.513-.94-.72-1.43C2.98 58.48 1 55.92 1 43.464 1 30.399 21.688 12.977 11.89 1" stroke="#4E267E" stroke-linecap="round"/><path d="M84.841 82.664c0-1.293-5.6-6.548-8.71-7.622-3.111-1.075-3.538-1.683-8.711-2.178-5.173-.494-9.8 3.266-14.155 5.444-5.444.99-7.622.929-11.78.929-3.178.02-8.28-1.267-9.373 0-1.092 1.267-2.728 3.61-.585 4.804 2.929 1.874 2.927 1.171 7.583 1.89 5.444 0 8.71-.454 14.155 0" stroke="#4E267E" stroke-linecap="round"/><path d="M73.953 96.818c-2.178-2.177-8.71-5.444-11.977-4.355-6.172-.15-14.546 5.622-19.6 4.355-5.444 1.09-23.954-16.668-26.61-19.188-3.877-3.677 0-6.944 0-6.944.846-2.175 10.278.95 15.722 6.944" stroke="#4E267E" stroke-linecap="round"/><path d="M47.084 35.49a.5.5 0 00-.76.063c-4.913 6.925-9.157 11.42-13.856 16.4-2.453 2.598-5.03 5.329-7.89 8.604a.5.5 0 00.152.776l3.25 1.625a1.5 1.5 0 01.83 1.342v4.208a.5.5 0 00.886.317l9.8-11.978 9.767-11.937c.892-.73 1.371-1.567 1.513-2.464.143-.898-.062-1.799-.43-2.638-.73-1.664-2.172-3.229-3.261-4.319z" stroke="#4E267E" stroke-linejoin="round"/><path d="M31.134 35.49a.5.5 0 01.762.063c3.728 5.256 6.92 8.852 10.22 12.323.89.936 1.789 1.865 2.71 2.817 2.49 2.57 5.134 5.303 8.168 8.776a.5.5 0 01-.153.776l-3.25 1.625a1.5 1.5 0 00-.83 1.341v4.208a.5.5 0 01-.886.317L28.308 43.82c-.879-.718-1.34-1.496-1.416-2.326-.076-.83.24-1.608.697-2.304.457-.698 1.088-1.362 1.722-1.975.295-.285.58-.55.854-.805.34-.316.664-.617.97-.922z" stroke="#4E267E" stroke-linejoin="round"/><path d="M31.488 34.754c1.089-1.089 5.07-2.178 7.622-2.178 2.551 0 6.533 1.089 7.622 2.178" stroke="#4E267E" stroke-linecap="round"/></svg></svg></svg></svg>