<svg width="275" height="143" fill="none" xmlns="http://www.w3.org/2000/svg"><path d="M.092 137.081a1 1 0 00.49 1.327l8.173 3.767a1 1 0 10.837-1.817l-7.265-3.348 3.348-7.265a1 1 0 10-1.817-.837l-3.766 8.173zM.309 1.723C30.521 30.6 79.832 69.873 129.591 93.826c24.878 11.975 49.935 20.154 72.811 21.245 22.904 1.092 43.667-4.922 59.812-21.37l-1.428-1.401c-15.655 15.951-35.813 21.845-58.288 20.773-22.503-1.073-47.284-9.133-72.039-21.049C80.951 68.193 31.812 29.067 1.691.277L.309 1.723zM262.214 93.7c4.003-4.079 6.959-7.67 8.933-10.807 1.966-3.124 3.011-5.883 3.068-8.279.059-2.462-.93-4.455-2.806-5.94-1.827-1.447-4.455-2.382-7.676-2.928-6.449-1.094-15.702-.692-26.959.835-11.281 1.53-24.661 4.205-39.405 7.708C138.401 88.3 57.331 115.64.654 136.562l.692 1.876c56.656-20.913 137.636-48.22 196.485-62.203 14.71-3.494 28.02-6.153 39.212-7.67 11.215-1.522 20.218-1.887 26.355-.846 3.072.52 5.321 1.377 6.77 2.524 1.401 1.11 2.091 2.512 2.048 4.325-.045 1.879-.883 4.275-2.762 7.26-1.87 2.974-4.721 6.45-8.668 10.471l1.428 1.401z" fill="#4E267E"/></svg>