<svg width="139" height="38" fill="none" xmlns="http://www.w3.org/2000/svg"><path d="M135.534 37.63a.75.75 0 00.953-.465l2.189-6.386a.75.75 0 10-1.419-.486l-1.946 5.676-5.675-1.946a.75.75 0 00-.487 1.419l6.385 2.189zM1.102 4.144c18.438-2.527 47.287-3.887 73.885.24 13.298 2.063 25.999 5.493 36.546 10.812 10.545 5.318 18.895 12.501 23.571 22.056l1.347-.66c-4.862-9.935-13.506-17.321-24.243-22.735C101.474 8.443 88.606 4.978 75.217 2.9 48.439-1.255 19.437.115.898 2.657l.204 1.486z" fill="#4E267E"/></svg>