<svg xmlns="http://www.w3.org/2000/svg" version="1.1" xmlns:xlink="http://www.w3.org/1999/xlink" xmlns:svgjs="http://svgjs.dev/svgjs" width="1000" height="1000"><style>
    #light-icon {
      display: inline;
    }
    #dark-icon {
      display: none;
    }

    @media (prefers-color-scheme: dark) {
      #light-icon {
        display: none;
      }
      #dark-icon {
        display: inline;
      }
    }
  </style><g id="light-icon"><svg xmlns="http://www.w3.org/2000/svg" version="1.1" xmlns:xlink="http://www.w3.org/1999/xlink" xmlns:svgjs="http://svgjs.dev/svgjs" width="1000" height="1000"><g><g transform="matrix(10.204081632653061,0,0,10.204081632653061,61.22448979591837,0)"><svg xmlns="http://www.w3.org/2000/svg" version="1.1" xmlns:xlink="http://www.w3.org/1999/xlink" xmlns:svgjs="http://svgjs.dev/svgjs" width="86" height="98"><svg width="86" height="98" viewBox="0 0 86 98" fill="none" xmlns="http://www.w3.org/2000/svg">
<path d="M69.5983 29.31C72.9433 34.8119 75.0823 40.6026 75.0425 46.9442C75.0027 53.2858 74.2707 59.5045 70.8569 64.9687C67.4431 70.4328 65.6611 71.9343 59.7977 75.0415M14.0661 75.0415C10.9396 72.9571 8.81072 69.8752 5.76963 64.8409C5.49387 64.3844 5.25732 63.9018 5.05067 63.4101C2.97918 58.4816 0.999704 55.9208 1 43.465C1.00031 30.3988 21.6884 12.9773 11.8895 1" stroke="#4E267E" stroke-linecap="round"></path>
<path d="M84.8415 82.6636C84.8415 81.3714 79.2414 76.1162 76.1307 75.0418C73.0199 73.9675 72.5929 73.3586 67.4199 72.8641C62.2469 72.3697 57.6203 76.1305 53.2649 78.3082C47.8207 79.2981 45.643 79.2368 41.4859 79.2368C38.3069 79.2577 33.2046 77.9695 32.1122 79.2368C31.0199 80.5041 29.384 82.8468 31.5268 84.0406C34.4559 85.9153 34.4544 85.2122 39.1099 85.9301C44.5542 85.9301 47.8207 85.4765 53.2649 85.9301" stroke="#4E267E" stroke-linecap="round"></path>
<path d="M73.9532 96.8184C71.7755 94.6407 65.2425 91.3742 61.9759 92.463C55.8035 92.3126 47.4299 98.0852 42.3767 96.8184C36.9325 97.9073 18.4217 80.1496 15.7658 77.6303C11.8887 73.9529 15.7658 70.686 15.7658 70.686C16.6119 68.5113 26.0442 71.6367 31.4885 77.63" stroke="#4E267E" stroke-linecap="round"></path>
<path d="M47.0845 35.4892C46.9804 35.3851 46.8357 35.3322 46.6889 35.3445C46.5422 35.3569 46.4084 35.4334 46.3232 35.5535C41.4105 42.4777 37.1672 46.9737 32.4678 51.9528C30.0152 54.5514 27.4384 57.2816 24.5775 60.5573C24.4756 60.6739 24.4335 60.8311 24.4635 60.9829C24.4934 61.1348 24.592 61.2642 24.7304 61.3334L27.9802 62.9583C28.4884 63.2124 28.8094 63.7318 28.8094 64.3L28.8094 68.5081C28.8094 68.7195 28.9423 68.908 29.1413 68.979C29.3404 69.0501 29.5626 68.9883 29.6964 68.8248L39.496 56.8475L49.2633 44.9097C50.1545 44.1801 50.6342 43.3427 50.7764 42.4458C50.9187 41.548 50.714 40.6471 50.3457 39.8083C49.6151 38.1439 48.1743 36.579 47.0845 35.4892Z" stroke="#4E267E" stroke-linejoin="round"></path>
<path d="M31.1342 35.4892C31.2384 35.3851 31.3831 35.3322 31.5298 35.3445C31.6766 35.3569 31.8104 35.4334 31.8956 35.5535C35.6241 40.8087 38.8165 44.4051 42.1151 47.8756C43.0052 48.8122 43.9049 49.7413 44.8258 50.6925C47.3154 53.2637 49.9604 55.9955 52.9937 59.4685C53.0955 59.585 53.1376 59.7422 53.1077 59.8941C53.0778 60.0459 52.9792 60.1754 52.8407 60.2446L49.5909 61.8695C49.0828 62.1236 48.7618 62.643 48.7618 63.2111L48.7618 67.4193C48.7618 67.6306 48.6289 67.8191 48.4298 67.8902C48.2308 67.9612 48.0086 67.8995 47.8748 67.7359L28.308 43.8209C27.4292 43.1025 26.9684 42.325 26.8919 41.4946C26.8156 40.6658 27.1326 39.8865 27.5889 39.1906C28.0462 38.4934 28.6772 37.8287 29.3107 37.216C29.6057 36.9306 29.8907 36.6659 30.1649 36.4112C30.5053 36.0951 30.8289 35.7945 31.1342 35.4892Z" stroke="#4E267E" stroke-linejoin="round"></path>
<path d="M31.4878 34.7539C32.5766 33.665 36.5584 32.5762 39.1097 32.5762C41.661 32.5762 45.6428 33.665 46.7316 34.7539" stroke="#4E267E" stroke-linecap="round"></path>
</svg></svg></g></g></svg></g><g id="dark-icon"><svg xmlns="http://www.w3.org/2000/svg" version="1.1" xmlns:xlink="http://www.w3.org/1999/xlink" xmlns:svgjs="http://svgjs.dev/svgjs" width="1000" height="1000"><g clip-path="url(#SvgjsClipPath1015)"><rect width="1000" height="1000" fill="#ffffff"></rect><g transform="matrix(9.183673469387756,0,0,9.183673469387756,105.10204081632651,49.99999999999994)"><svg xmlns="http://www.w3.org/2000/svg" version="1.1" xmlns:xlink="http://www.w3.org/1999/xlink" xmlns:svgjs="http://svgjs.dev/svgjs" width="86" height="98"><svg width="86" height="98" viewBox="0 0 86 98" fill="none" xmlns="http://www.w3.org/2000/svg">
<path d="M69.5983 29.31C72.9433 34.8119 75.0823 40.6026 75.0425 46.9442C75.0027 53.2858 74.2707 59.5045 70.8569 64.9687C67.4431 70.4328 65.6611 71.9343 59.7977 75.0415M14.0661 75.0415C10.9396 72.9571 8.81072 69.8752 5.76963 64.8409C5.49387 64.3844 5.25732 63.9018 5.05067 63.4101C2.97918 58.4816 0.999704 55.9208 1 43.465C1.00031 30.3988 21.6884 12.9773 11.8895 1" stroke="#4E267E" stroke-linecap="round"></path>
<path d="M84.8415 82.6636C84.8415 81.3714 79.2414 76.1162 76.1307 75.0418C73.0199 73.9675 72.5929 73.3586 67.4199 72.8641C62.2469 72.3697 57.6203 76.1305 53.2649 78.3082C47.8207 79.2981 45.643 79.2368 41.4859 79.2368C38.3069 79.2577 33.2046 77.9695 32.1122 79.2368C31.0199 80.5041 29.384 82.8468 31.5268 84.0406C34.4559 85.9153 34.4544 85.2122 39.1099 85.9301C44.5542 85.9301 47.8207 85.4765 53.2649 85.9301" stroke="#4E267E" stroke-linecap="round"></path>
<path d="M73.9532 96.8184C71.7755 94.6407 65.2425 91.3742 61.9759 92.463C55.8035 92.3126 47.4299 98.0852 42.3767 96.8184C36.9325 97.9073 18.4217 80.1496 15.7658 77.6303C11.8887 73.9529 15.7658 70.686 15.7658 70.686C16.6119 68.5113 26.0442 71.6367 31.4885 77.63" stroke="#4E267E" stroke-linecap="round"></path>
<path d="M47.0845 35.4892C46.9804 35.3851 46.8357 35.3322 46.6889 35.3445C46.5422 35.3569 46.4084 35.4334 46.3232 35.5535C41.4105 42.4777 37.1672 46.9737 32.4678 51.9528C30.0152 54.5514 27.4384 57.2816 24.5775 60.5573C24.4756 60.6739 24.4335 60.8311 24.4635 60.9829C24.4934 61.1348 24.592 61.2642 24.7304 61.3334L27.9802 62.9583C28.4884 63.2124 28.8094 63.7318 28.8094 64.3L28.8094 68.5081C28.8094 68.7195 28.9423 68.908 29.1413 68.979C29.3404 69.0501 29.5626 68.9883 29.6964 68.8248L39.496 56.8475L49.2633 44.9097C50.1545 44.1801 50.6342 43.3427 50.7764 42.4458C50.9187 41.548 50.714 40.6471 50.3457 39.8083C49.6151 38.1439 48.1743 36.579 47.0845 35.4892Z" stroke="#4E267E" stroke-linejoin="round"></path>
<path d="M31.1342 35.4892C31.2384 35.3851 31.3831 35.3322 31.5298 35.3445C31.6766 35.3569 31.8104 35.4334 31.8956 35.5535C35.6241 40.8087 38.8165 44.4051 42.1151 47.8756C43.0052 48.8122 43.9049 49.7413 44.8258 50.6925C47.3154 53.2637 49.9604 55.9955 52.9937 59.4685C53.0955 59.585 53.1376 59.7422 53.1077 59.8941C53.0778 60.0459 52.9792 60.1754 52.8407 60.2446L49.5909 61.8695C49.0828 62.1236 48.7618 62.643 48.7618 63.2111L48.7618 67.4193C48.7618 67.6306 48.6289 67.8191 48.4298 67.8902C48.2308 67.9612 48.0086 67.8995 47.8748 67.7359L28.308 43.8209C27.4292 43.1025 26.9684 42.325 26.8919 41.4946C26.8156 40.6658 27.1326 39.8865 27.5889 39.1906C28.0462 38.4934 28.6772 37.8287 29.3107 37.216C29.6057 36.9306 29.8907 36.6659 30.1649 36.4112C30.5053 36.0951 30.8289 35.7945 31.1342 35.4892Z" stroke="#4E267E" stroke-linejoin="round"></path>
<path d="M31.4878 34.7539C32.5766 33.665 36.5584 32.5762 39.1097 32.5762C41.661 32.5762 45.6428 33.665 46.7316 34.7539" stroke="#4E267E" stroke-linecap="round"></path>
</svg></svg></g></g><defs><clipPath id="SvgjsClipPath1015"><rect width="1000" height="1000" x="0" y="0" rx="300" ry="300"></rect></clipPath></defs></svg></g></svg>